# MagicaVoxel @ Ephtracy

# group
o 

# material
mtllib road_1.mtl
usemtl palette

# normals
vn -1 0 0
vn 1 0 0
vn 0 0 1
vn 0 0 -1
vn 0 -1 0
vn 0 1 0

# texcoords
vt 0.958984 0.5
vt 0.962891 0.5
vt 0.966797 0.5
vt 0.970703 0.5
vt 0.974609 0.5
vt 0.978516 0.5

# verts
v 0 2 0
v 0 2 -0.9
v 0 2 -3.7
v 0 2 -4
v 0 2.1 0
v 0 2.1 -0.9
v 0 2.1 -3.7
v 0 2.3 0
v 0 2.3 -4
v 3.1 2.1 0
v 3.1 2.1 -4
v 3.1 2.3 0
v 3.1 2.3 -4
v 0.2 2.1 0
v 0.2 2.1 -4
v 0.2 2.3 0
v 0.2 2.3 -4
v 3.3 2 0
v 3.3 2 -0.9
v 3.3 2 -1
v 3.3 2 -1.1
v 3.3 2 -3.7
v 3.3 2 -4
v 3.3 2.1 -0.9
v 3.3 2.1 -1
v 3.3 2.1 -1.1
v 3.3 2.1 -3.7
v 3.3 2.1 -3.8
v 3.3 2.2 -0.2
v 3.3 2.2 -0.9
v 3.3 2.2 -3.8
v 3.3 2.3 0
v 3.3 2.3 -0.2
v 3.3 2.3 -4
v 0 2 0
v 0 2.1 0
v 0 2.3 0
v 0.1 2 0
v 0.1 2.1 0
v 0.2 2.1 0
v 0.2 2.3 0
v 0.3 2 0
v 0.3 2.1 0
v 1.5 2 0
v 1.5 2.1 0
v 1.6 2 0
v 1.6 2.1 0
v 3 2 0
v 3 2.1 0
v 3.1 2.1 0
v 3.1 2.3 0
v 3.2 2 0
v 3.2 2.3 0
v 3.3 2 0
v 3.3 2.3 0
v 0 2 -4
v 0 2.3 -4
v 0.2 2.1 -4
v 0.2 2.3 -4
v 0.3 2 -4
v 0.3 2.1 -4
v 1.5 2 -4
v 1.5 2.1 -4
v 1.6 2 -4
v 1.6 2.1 -4
v 3 2 -4
v 3 2.1 -4
v 3.1 2.1 -4
v 3.1 2.3 -4
v 3.3 2 -4
v 3.3 2.3 -4
v 0 2 0
v 0.1 2 0
v 0.3 2 0
v 1.5 2 0
v 1.6 2 0
v 3 2 0
v 3.2 2 0
v 3.3 2 0
v 0 2 -0.9
v 0.1 2 -0.9
v 3.1 2 -0.9
v 3.2 2 -0.9
v 3.3 2 -0.9
v 3.2 2 -1
v 3.3 2 -1
v 3.2 2 -1.1
v 3.3 2 -1.1
v 0 2 -3.7
v 0.1 2 -3.7
v 3.1 2 -3.7
v 3.3 2 -3.7
v 0 2 -4
v 0.3 2 -4
v 1.5 2 -4
v 1.6 2 -4
v 3 2 -4
v 3.3 2 -4
v 0.2 2.1 0
v 0.3 2.1 0
v 1.5 2.1 0
v 1.6 2.1 0
v 3 2.1 0
v 3.1 2.1 0
v 0.2 2.1 -4
v 0.3 2.1 -4
v 1.5 2.1 -4
v 1.6 2.1 -4
v 3 2.1 -4
v 3.1 2.1 -4
v 0 2.3 0
v 0.2 2.3 0
v 3.1 2.3 0
v 3.2 2.3 0
v 3.3 2.3 0
v 3.2 2.3 -0.2
v 3.3 2.3 -0.2
v 0 2.3 -4
v 0.2 2.3 -4
v 3.1 2.3 -4
v 3.3 2.3 -4

# faces
f 5/3/1 2/3/1 1/3/1
f 6/6/1 3/6/1 2/6/1
f 6/3/1 2/3/1 5/3/1
f 7/1/1 4/1/1 3/1/1
f 7/6/1 3/6/1 6/6/1
f 8/1/1 6/1/1 5/1/1
f 8/1/1 7/1/1 6/1/1
f 9/1/1 4/1/1 7/1/1
f 9/1/1 7/1/1 8/1/1
f 12/1/1 11/1/1 10/1/1
f 13/1/1 11/1/1 12/1/1
f 14/1/2 15/1/2 16/1/2
f 16/1/2 15/1/2 17/1/2
f 18/3/2 19/3/2 24/3/2
f 19/1/2 20/1/2 24/1/2
f 20/5/2 21/5/2 25/5/2
f 24/1/2 20/1/2 25/1/2
f 21/2/2 22/2/2 26/2/2
f 25/5/2 21/5/2 26/5/2
f 22/1/2 23/1/2 27/1/2
f 26/2/2 22/2/2 27/2/2
f 27/1/2 23/1/2 28/1/2
f 18/3/2 24/3/2 29/3/2
f 25/2/2 26/2/2 30/2/2
f 29/3/2 24/3/2 30/3/2
f 24/2/2 25/2/2 30/2/2
f 27/2/2 28/2/2 30/2/2
f 26/2/2 27/2/2 30/2/2
f 28/1/2 23/1/2 31/1/2
f 30/2/2 28/2/2 31/2/2
f 18/3/2 29/3/2 32/3/2
f 29/1/2 30/1/2 33/1/2
f 32/3/2 29/3/2 33/3/2
f 30/1/2 31/1/2 33/1/2
f 31/1/2 23/1/2 34/1/2
f 33/1/2 31/1/2 34/1/2
f 38/3/3 36/3/3 35/3/3
f 39/1/3 37/1/3 36/1/3
f 39/3/3 36/3/3 38/3/3
f 40/1/3 39/1/3 38/1/3
f 40/1/3 37/1/3 39/1/3
f 41/1/3 37/1/3 40/1/3
f 42/1/3 40/1/3 38/1/3
f 43/1/3 40/1/3 42/1/3
f 44/6/3 43/6/3 42/6/3
f 45/6/3 43/6/3 44/6/3
f 46/4/3 45/4/3 44/4/3
f 47/4/3 45/4/3 46/4/3
f 48/6/3 47/6/3 46/6/3
f 49/6/3 47/6/3 48/6/3
f 50/1/3 49/1/3 48/1/3
f 52/1/3 50/1/3 48/1/3
f 52/1/3 51/1/3 50/1/3
f 53/1/3 51/1/3 52/1/3
f 54/3/3 53/3/3 52/3/3
f 55/3/3 53/3/3 54/3/3
f 56/1/4 57/1/4 58/1/4
f 58/1/4 57/1/4 59/1/4
f 56/1/4 58/1/4 60/1/4
f 60/1/4 58/1/4 61/1/4
f 60/6/4 61/6/4 62/6/4
f 62/6/4 61/6/4 63/6/4
f 62/4/4 63/4/4 64/4/4
f 64/4/4 63/4/4 65/4/4
f 64/6/4 65/6/4 66/6/4
f 66/6/4 65/6/4 67/6/4
f 66/1/4 67/1/4 68/1/4
f 66/1/4 68/1/4 70/1/4
f 68/1/4 69/1/4 70/1/4
f 70/1/4 69/1/4 71/1/4
f 80/3/5 73/3/5 72/3/5
f 81/1/5 74/1/5 73/1/5
f 81/3/5 73/3/5 80/3/5
f 82/1/5 78/1/5 77/1/5
f 83/3/5 79/3/5 78/3/5
f 83/1/5 78/1/5 82/1/5
f 84/3/5 79/3/5 83/3/5
f 85/2/5 83/2/5 82/2/5
f 85/1/5 84/1/5 83/1/5
f 86/1/5 84/1/5 85/1/5
f 87/2/5 85/2/5 82/2/5
f 87/5/5 86/5/5 85/5/5
f 88/5/5 86/5/5 87/5/5
f 89/6/5 81/6/5 80/6/5
f 90/1/5 74/1/5 81/1/5
f 90/6/5 81/6/5 89/6/5
f 91/1/5 82/1/5 77/1/5
f 91/2/5 87/2/5 82/2/5
f 91/2/5 88/2/5 87/2/5
f 92/2/5 88/2/5 91/2/5
f 93/1/5 90/1/5 89/1/5
f 94/1/5 74/1/5 90/1/5
f 94/1/5 90/1/5 93/1/5
f 94/6/5 75/6/5 74/6/5
f 95/4/5 76/4/5 75/4/5
f 95/6/5 75/6/5 94/6/5
f 96/6/5 77/6/5 76/6/5
f 96/4/5 76/4/5 95/4/5
f 97/1/5 92/1/5 91/1/5
f 97/6/5 77/6/5 96/6/5
f 97/1/5 91/1/5 77/1/5
f 98/1/5 92/1/5 97/1/5
f 99/1/6 100/1/6 105/1/6
f 100/6/6 101/6/6 106/6/6
f 105/1/6 100/1/6 106/1/6
f 101/4/6 102/4/6 107/4/6
f 106/6/6 101/6/6 107/6/6
f 102/6/6 103/6/6 108/6/6
f 107/4/6 102/4/6 108/4/6
f 103/1/6 104/1/6 109/1/6
f 108/6/6 103/6/6 109/6/6
f 109/1/6 104/1/6 110/1/6
f 113/1/6 114/1/6 116/1/6
f 114/3/6 115/3/6 116/3/6
f 116/3/6 115/3/6 117/3/6
f 111/1/6 112/1/6 118/1/6
f 118/1/6 112/1/6 119/1/6
f 113/1/6 116/1/6 120/1/6
f 116/1/6 117/1/6 120/1/6
f 120/1/6 117/1/6 121/1/6
