# MagicaVoxel @ Ephtracy

# group
o 

# material
mtllib road_2.mtl
usemtl palette

# normals
vn -1 0 0
vn 1 0 0
vn 0 0 1
vn 0 0 -1
vn 0 -1 0
vn 0 1 0

# texcoords
vt 0.958984 0.5
vt 0.962891 0.5
vt 0.966797 0.5
vt 0.970703 0.5
vt 0.974609 0.5
vt 0.978516 0.5

# verts
v 0 2 0
v 0 2 -0.9
v 0 2 -2.3
v 0 2 -2.4
v 0 2 -3.7
v 0 2 -4
v 0 2.1 -0.9
v 0 2.1 -2.3
v 0 2.1 -2.4
v 0 2.1 -3.7
v 0 2.1 -3.8
v 0 2.2 -3.8
v 0 2.2 -4
v 0 2.3 0
v 0 2.3 -0.9
v 0 2.3 -3.8
v 0 2.3 -4
v 3.1 2.1 0
v 3.1 2.1 -1.1
v 3.1 2.1 -3.7
v 3.1 2.1 -3.8
v 3.1 2.2 -1.1
v 3.1 2.2 -3.8
v 3.1 2.3 0
v 3.1 2.3 -3.8
v 0.2 2.1 0
v 0.2 2.1 -0.9
v 0.2 2.2 0
v 0.2 2.2 -0.9
v 0.2 2.3 0
v 0.2 2.3 -0.9
v 3.3 2 0
v 3.3 2 -0.9
v 3.3 2 -1
v 3.3 2 -1.1
v 3.3 2 -4
v 3.3 2.1 -0.9
v 3.3 2.1 -1
v 3.3 2.1 -1.1
v 3.3 2.2 -0.9
v 3.3 2.2 -4
v 3.3 2.3 0
v 3.3 2.3 -0.9
v 3.3 2.3 -4
v 0 2 0
v 0 2.3 0
v 0.1 2 0
v 0.1 2.2 0
v 0.2 2.1 0
v 0.2 2.2 0
v 0.2 2.3 0
v 0.3 2 0
v 0.3 2.1 0
v 1.6 2 0
v 1.6 2.1 0
v 1.7 2 0
v 1.7 2.1 0
v 3 2 0
v 3 2.1 0
v 3.1 2.1 0
v 3.1 2.3 0
v 3.2 2 0
v 3.2 2.3 0
v 3.3 2 0
v 3.3 2.3 0
v 0 2.1 -3.8
v 0 2.2 -3.8
v 0 2.3 -3.8
v 3.1 2.1 -3.8
v 3.1 2.2 -3.8
v 3.1 2.3 -3.8
v 0 2.1 -0.9
v 0 2.3 -0.9
v 0.1 2.1 -0.9
v 0.1 2.2 -0.9
v 0.2 2.1 -0.9
v 0.2 2.2 -0.9
v 0.2 2.3 -0.9
v 0 2 -4
v 0 2.2 -4
v 0 2.3 -4
v 3.3 2 -4
v 3.3 2.2 -4
v 3.3 2.3 -4
v 0 2 0
v 0.1 2 0
v 0.3 2 0
v 1.6 2 0
v 1.7 2 0
v 3 2 0
v 3.2 2 0
v 3.3 2 0
v 0 2 -0.9
v 0.1 2 -0.9
v 0.3 2 -0.9
v 3.1 2 -0.9
v 3.2 2 -0.9
v 3.3 2 -0.9
v 3.2 2 -1
v 3.3 2 -1
v 3.2 2 -1.1
v 3.3 2 -1.1
v 1.5 2 -1.9
v 1.6 2 -1.9
v 1.7 2 -1.9
v 1.4 2 -2
v 1.5 2 -2
v 1.6 2 -2
v 1.3 2 -2.1
v 1.4 2 -2.1
v 1.5 2 -2.1
v 1.2 2 -2.2
v 1.3 2 -2.2
v 1.4 2 -2.2
v 0 2 -2.3
v 1.2 2 -2.3
v 1.3 2 -2.3
v 0 2 -2.4
v 1.2 2 -2.4
v 2.9 2 -3.2
v 3 2 -3.2
v 2.8 2 -3.3
v 2.9 2 -3.3
v 3 2 -3.3
v 2.7 2 -3.4
v 2.8 2 -3.4
v 2.9 2 -3.4
v 2.6 2 -3.5
v 2.7 2 -3.5
v 2.8 2 -3.5
v 2.5 2 -3.6
v 2.6 2 -3.6
v 2.7 2 -3.6
v 0 2 -3.7
v 2.5 2 -3.7
v 2.6 2 -3.7
v 3 2 -3.7
v 3.1 2 -3.7
v 0 2 -4
v 3.3 2 -4
v 0.2 2.1 0
v 0.3 2.1 0
v 1.6 2.1 0
v 1.7 2.1 0
v 3 2.1 0
v 3.1 2.1 0
v 0 2.1 -0.9
v 0.1 2.1 -0.9
v 0.2 2.1 -0.9
v 0.3 2.1 -0.9
v 3.1 2.1 -1.1
v 1.5 2.1 -1.9
v 1.6 2.1 -1.9
v 1.7 2.1 -1.9
v 1.4 2.1 -2
v 1.5 2.1 -2
v 1.6 2.1 -2
v 1.3 2.1 -2.1
v 1.4 2.1 -2.1
v 1.5 2.1 -2.1
v 1.2 2.1 -2.2
v 1.3 2.1 -2.2
v 1.4 2.1 -2.2
v 0 2.1 -2.3
v 1.2 2.1 -2.3
v 1.3 2.1 -2.3
v 0 2.1 -2.4
v 1.2 2.1 -2.4
v 2.9 2.1 -3.2
v 3 2.1 -3.2
v 2.8 2.1 -3.3
v 2.9 2.1 -3.3
v 3 2.1 -3.3
v 2.7 2.1 -3.4
v 2.8 2.1 -3.4
v 2.9 2.1 -3.4
v 2.6 2.1 -3.5
v 2.7 2.1 -3.5
v 2.8 2.1 -3.5
v 2.5 2.1 -3.6
v 2.6 2.1 -3.6
v 2.7 2.1 -3.6
v 0 2.1 -3.7
v 2.5 2.1 -3.7
v 2.6 2.1 -3.7
v 3 2.1 -3.7
v 3.1 2.1 -3.7
v 0 2.1 -3.8
v 3.1 2.1 -3.8
v 0 2.3 0
v 0.2 2.3 0
v 3.1 2.3 0
v 3.2 2.3 0
v 3.3 2.3 0
v 0 2.3 -0.9
v 0.2 2.3 -0.9
v 3.2 2.3 -0.9
v 3.3 2.3 -0.9
v 0 2.3 -3.8
v 3.1 2.3 -3.8
v 0 2.3 -4
v 3.3 2.3 -4

# faces
f 7/3/1 2/3/1 1/3/1
f 7/6/1 3/6/1 2/6/1
f 8/4/1 4/4/1 3/4/1
f 8/6/1 3/6/1 7/6/1
f 9/6/1 5/6/1 4/6/1
f 9/4/1 4/4/1 8/4/1
f 10/2/1 6/2/1 5/2/1
f 10/6/1 5/6/1 9/6/1
f 11/2/1 6/2/1 10/2/1
f 12/2/1 6/2/1 11/2/1
f 13/2/1 6/2/1 12/2/1
f 14/3/1 7/3/1 1/3/1
f 15/3/1 7/3/1 14/3/1
f 16/1/1 13/1/1 12/1/1
f 17/1/1 13/1/1 16/1/1
f 22/1/1 19/1/1 18/1/1
f 22/2/1 21/2/1 20/2/1
f 22/2/1 20/2/1 19/2/1
f 23/2/1 21/2/1 22/2/1
f 24/1/1 22/1/1 18/1/1
f 24/1/1 23/1/1 22/1/1
f 25/1/1 23/1/1 24/1/1
f 26/1/2 27/1/2 28/1/2
f 28/1/2 27/1/2 29/1/2
f 28/3/2 29/3/2 30/3/2
f 30/3/2 29/3/2 31/3/2
f 32/3/2 33/3/2 37/3/2
f 33/1/2 34/1/2 37/1/2
f 34/5/2 35/5/2 38/5/2
f 37/1/2 34/1/2 38/1/2
f 35/2/2 36/2/2 39/2/2
f 38/5/2 35/5/2 39/5/2
f 37/2/2 38/2/2 40/2/2
f 32/3/2 37/3/2 40/3/2
f 38/2/2 39/2/2 40/2/2
f 39/2/2 36/2/2 41/2/2
f 40/2/2 39/2/2 41/2/2
f 32/3/2 40/3/2 42/3/2
f 40/1/2 41/1/2 43/1/2
f 42/3/2 40/3/2 43/3/2
f 43/1/2 41/1/2 44/1/2
f 47/3/3 46/3/3 45/3/3
f 48/3/3 46/3/3 47/3/3
f 49/1/3 48/1/3 47/1/3
f 50/3/3 46/3/3 48/3/3
f 50/1/3 48/1/3 49/1/3
f 51/3/3 46/3/3 50/3/3
f 52/1/3 49/1/3 47/1/3
f 53/1/3 49/1/3 52/1/3
f 54/6/3 53/6/3 52/6/3
f 55/6/3 53/6/3 54/6/3
f 56/4/3 55/4/3 54/4/3
f 57/4/3 55/4/3 56/4/3
f 58/6/3 57/6/3 56/6/3
f 59/6/3 57/6/3 58/6/3
f 60/1/3 59/1/3 58/1/3
f 62/1/3 60/1/3 58/1/3
f 62/1/3 61/1/3 60/1/3
f 63/1/3 61/1/3 62/1/3
f 64/3/3 63/3/3 62/3/3
f 65/3/3 63/3/3 64/3/3
f 69/2/3 67/2/3 66/2/3
f 70/1/3 68/1/3 67/1/3
f 70/2/3 67/2/3 69/2/3
f 71/1/3 68/1/3 70/1/3
f 72/3/4 73/3/4 74/3/4
f 74/3/4 73/3/4 75/3/4
f 74/1/4 75/1/4 76/1/4
f 75/3/4 73/3/4 77/3/4
f 76/1/4 75/1/4 77/1/4
f 77/3/4 73/3/4 78/3/4
f 79/2/4 80/2/4 82/2/4
f 80/1/4 81/1/4 83/1/4
f 82/2/4 80/2/4 83/2/4
f 83/1/4 81/1/4 84/1/4
f 93/3/5 86/3/5 85/3/5
f 94/1/5 87/1/5 86/1/5
f 94/3/5 86/3/5 93/3/5
f 95/6/5 88/6/5 87/6/5
f 95/1/5 87/1/5 94/1/5
f 96/1/5 91/1/5 90/1/5
f 97/3/5 92/3/5 91/3/5
f 97/1/5 91/1/5 96/1/5
f 98/3/5 92/3/5 97/3/5
f 99/2/5 97/2/5 96/2/5
f 99/1/5 98/1/5 97/1/5
f 100/1/5 98/1/5 99/1/5
f 101/2/5 99/2/5 96/2/5
f 101/5/5 100/5/5 99/5/5
f 102/5/5 100/5/5 101/5/5
f 103/6/5 94/6/5 93/6/5
f 103/6/5 88/6/5 95/6/5
f 103/6/5 95/6/5 94/6/5
f 104/4/5 89/4/5 88/4/5
f 104/6/5 88/6/5 103/6/5
f 105/6/5 90/6/5 89/6/5
f 105/4/5 89/4/5 104/4/5
f 106/6/5 103/6/5 93/6/5
f 107/4/5 104/4/5 103/4/5
f 107/6/5 103/6/5 106/6/5
f 108/6/5 105/6/5 104/6/5
f 108/4/5 104/4/5 107/4/5
f 109/6/5 106/6/5 93/6/5
f 110/4/5 107/4/5 106/4/5
f 110/6/5 106/6/5 109/6/5
f 111/6/5 108/6/5 107/6/5
f 111/4/5 107/4/5 110/4/5
f 112/6/5 109/6/5 93/6/5
f 113/4/5 110/4/5 109/4/5
f 113/6/5 109/6/5 112/6/5
f 114/6/5 111/6/5 110/6/5
f 114/4/5 110/4/5 113/4/5
f 115/6/5 112/6/5 93/6/5
f 116/4/5 113/4/5 112/4/5
f 116/6/5 112/6/5 115/6/5
f 117/6/5 114/6/5 113/6/5
f 117/4/5 113/4/5 116/4/5
f 118/4/5 116/4/5 115/4/5
f 119/6/5 117/6/5 116/6/5
f 119/4/5 116/4/5 118/4/5
f 120/6/5 90/6/5 105/6/5
f 120/6/5 117/6/5 119/6/5
f 120/6/5 119/6/5 118/6/5
f 120/6/5 105/6/5 108/6/5
f 120/6/5 114/6/5 117/6/5
f 120/6/5 108/6/5 111/6/5
f 120/6/5 111/6/5 114/6/5
f 121/1/5 96/1/5 90/1/5
f 121/6/5 90/6/5 120/6/5
f 122/6/5 120/6/5 118/6/5
f 123/4/5 121/4/5 120/4/5
f 123/6/5 120/6/5 122/6/5
f 124/1/5 96/1/5 121/1/5
f 124/4/5 121/4/5 123/4/5
f 125/6/5 122/6/5 118/6/5
f 126/4/5 123/4/5 122/4/5
f 126/6/5 122/6/5 125/6/5
f 127/6/5 124/6/5 123/6/5
f 127/4/5 123/4/5 126/4/5
f 128/6/5 125/6/5 118/6/5
f 129/4/5 126/4/5 125/4/5
f 129/6/5 125/6/5 128/6/5
f 130/6/5 127/6/5 126/6/5
f 130/4/5 126/4/5 129/4/5
f 131/6/5 128/6/5 118/6/5
f 132/4/5 129/4/5 128/4/5
f 132/6/5 128/6/5 131/6/5
f 133/6/5 130/6/5 129/6/5
f 133/4/5 129/4/5 132/4/5
f 134/6/5 131/6/5 118/6/5
f 135/4/5 132/4/5 131/4/5
f 135/6/5 131/6/5 134/6/5
f 136/6/5 133/6/5 132/6/5
f 136/4/5 132/4/5 135/4/5
f 137/6/5 124/6/5 127/6/5
f 137/6/5 133/6/5 136/6/5
f 137/1/5 96/1/5 124/1/5
f 137/6/5 127/6/5 130/6/5
f 137/6/5 130/6/5 133/6/5
f 138/2/5 102/2/5 101/2/5
f 138/1/5 96/1/5 137/1/5
f 138/2/5 101/2/5 96/2/5
f 139/2/5 136/2/5 135/2/5
f 139/2/5 137/2/5 136/2/5
f 139/2/5 138/2/5 137/2/5
f 139/2/5 135/2/5 134/2/5
f 140/2/5 102/2/5 138/2/5
f 140/2/5 138/2/5 139/2/5
f 141/1/6 142/1/6 149/1/6
f 142/6/6 143/6/6 150/6/6
f 149/1/6 142/1/6 150/1/6
f 145/1/6 146/1/6 151/1/6
f 147/6/6 148/6/6 152/6/6
f 148/6/6 149/6/6 152/6/6
f 150/6/6 143/6/6 152/6/6
f 149/6/6 150/6/6 152/6/6
f 143/4/6 144/4/6 153/4/6
f 152/6/6 143/6/6 153/6/6
f 144/6/6 145/6/6 154/6/6
f 153/4/6 144/4/6 154/4/6
f 147/6/6 152/6/6 155/6/6
f 152/4/6 153/4/6 156/4/6
f 155/6/6 152/6/6 156/6/6
f 153/6/6 154/6/6 157/6/6
f 156/4/6 153/4/6 157/4/6
f 147/6/6 155/6/6 158/6/6
f 155/4/6 156/4/6 159/4/6
f 158/6/6 155/6/6 159/6/6
f 156/6/6 157/6/6 160/6/6
f 159/4/6 156/4/6 160/4/6
f 147/6/6 158/6/6 161/6/6
f 158/4/6 159/4/6 162/4/6
f 161/6/6 158/6/6 162/6/6
f 159/6/6 160/6/6 163/6/6
f 162/4/6 159/4/6 163/4/6
f 147/6/6 161/6/6 164/6/6
f 161/4/6 162/4/6 165/4/6
f 164/6/6 161/6/6 165/6/6
f 162/6/6 163/6/6 166/6/6
f 165/4/6 162/4/6 166/4/6
f 164/4/6 165/4/6 167/4/6
f 165/6/6 166/6/6 168/6/6
f 167/4/6 165/4/6 168/4/6
f 154/6/6 145/6/6 169/6/6
f 168/6/6 166/6/6 169/6/6
f 167/6/6 168/6/6 169/6/6
f 157/6/6 154/6/6 169/6/6
f 166/6/6 163/6/6 169/6/6
f 160/6/6 157/6/6 169/6/6
f 163/6/6 160/6/6 169/6/6
f 145/1/6 151/1/6 170/1/6
f 169/6/6 145/6/6 170/6/6
f 167/6/6 169/6/6 171/6/6
f 169/4/6 170/4/6 172/4/6
f 171/6/6 169/6/6 172/6/6
f 170/1/6 151/1/6 173/1/6
f 172/4/6 170/4/6 173/4/6
f 167/6/6 171/6/6 174/6/6
f 171/4/6 172/4/6 175/4/6
f 174/6/6 171/6/6 175/6/6
f 172/6/6 173/6/6 176/6/6
f 175/4/6 172/4/6 176/4/6
f 167/6/6 174/6/6 177/6/6
f 174/4/6 175/4/6 178/4/6
f 177/6/6 174/6/6 178/6/6
f 175/6/6 176/6/6 179/6/6
f 178/4/6 175/4/6 179/4/6
f 167/6/6 177/6/6 180/6/6
f 177/4/6 178/4/6 181/4/6
f 180/6/6 177/6/6 181/6/6
f 178/6/6 179/6/6 182/6/6
f 181/4/6 178/4/6 182/4/6
f 167/6/6 180/6/6 183/6/6
f 180/4/6 181/4/6 184/4/6
f 183/6/6 180/6/6 184/6/6
f 181/6/6 182/6/6 185/6/6
f 184/4/6 181/4/6 185/4/6
f 176/6/6 173/6/6 186/6/6
f 185/6/6 182/6/6 186/6/6
f 173/1/6 151/1/6 186/1/6
f 179/6/6 176/6/6 186/6/6
f 182/6/6 179/6/6 186/6/6
f 186/1/6 151/1/6 187/1/6
f 184/2/6 185/2/6 188/2/6
f 183/2/6 184/2/6 188/2/6
f 186/2/6 187/2/6 188/2/6
f 185/2/6 186/2/6 188/2/6
f 188/2/6 187/2/6 189/2/6
f 190/3/6 191/3/6 195/3/6
f 195/3/6 191/3/6 196/3/6
f 193/3/6 194/3/6 197/3/6
f 192/1/6 193/1/6 197/1/6
f 197/3/6 194/3/6 198/3/6
f 192/1/6 197/1/6 200/1/6
f 197/1/6 198/1/6 200/1/6
f 199/1/6 200/1/6 201/1/6
f 200/1/6 198/1/6 202/1/6
f 201/1/6 200/1/6 202/1/6
